<svg width="15" height="10" viewBox="0 0 15 10" fill="none" xmlns="http://www.w3.org/2000/svg">
<path d="M1.62433 0.212585C1.26641 0.212585 0.972321 0.507109 0.972321 0.865029V4.78135C0.972321 5.38039 1.46095 5.87072 2.05999 5.87072H12.9401C13.5392 5.87072 14.0295 5.38039 14.0295 4.78135V0.865029C14.0295 0.507109 13.7333 0.212585 13.3754 0.212585H1.62433ZM2.49523 1.51705H4.23662C4.29351 1.51829 4.34765 1.54176 4.38745 1.58243C4.42724 1.62311 4.44953 1.67776 4.44953 1.73467C4.44953 1.79157 4.42724 1.8462 4.38745 1.88688C4.34765 1.92756 4.29351 1.95105 4.23662 1.95229H2.49523C2.43834 1.95105 2.3842 1.92756 2.3444 1.88688C2.30461 1.8462 2.28232 1.79157 2.28232 1.73467C2.28232 1.67776 2.30461 1.62311 2.3444 1.58243C2.3842 1.54176 2.43834 1.51829 2.49523 1.51705ZM5.10539 1.51705H5.54106C5.59796 1.51829 5.6521 1.54176 5.69189 1.58243C5.73169 1.62311 5.75397 1.67776 5.75397 1.73467C5.75397 1.79157 5.73169 1.8462 5.69189 1.88688C5.6521 1.92756 5.59796 1.95105 5.54106 1.95229H5.10539C5.0485 1.95105 4.99436 1.92756 4.95457 1.88688C4.91477 1.8462 4.89249 1.79157 4.89249 1.73467C4.89249 1.67776 4.91477 1.62311 4.95457 1.58243C4.99436 1.54176 5.0485 1.51829 5.10539 1.51705ZM2.49523 4.12933H12.5049C12.6292 4.12933 12.7234 4.22348 12.7234 4.34781V5.43547H2.27677V4.34781C2.27677 4.22348 2.3709 4.12933 2.49523 4.12933ZM2.91942 4.56458C2.61821 4.57979 2.64051 5.01505 2.93044 4.99982H12.0696C12.3599 4.99982 12.3599 4.56458 12.0696 4.56458H2.91942ZM4.0156 6.74247C3.96436 6.74164 3.91313 6.75933 3.87363 6.8007C3.40426 7.29218 3.58551 7.9698 3.83029 8.37504C4.09274 8.86553 4.05598 9.1735 3.87363 9.40959C3.66087 9.6851 4.00639 9.89802 4.16436 9.73262C4.63374 9.24114 4.45249 8.56352 4.20771 8.15827C3.94527 7.66779 3.98201 7.35984 4.16436 7.12375C4.32394 6.91712 4.1693 6.74544 4.0156 6.74247ZM5.75656 6.74247C5.70532 6.74164 5.65408 6.75933 5.6146 6.8007C5.14521 7.29218 5.32647 7.9698 5.57125 8.37504C5.83369 8.86553 5.79694 9.1735 5.6146 9.40959C5.40182 9.6851 5.74736 9.89802 5.90533 9.73262C6.3747 9.24114 6.19345 8.56352 5.94867 8.15827C5.68622 7.66779 5.72298 7.35984 5.90533 7.12375C6.06489 6.91712 5.91026 6.74544 5.75656 6.74247ZM7.49751 6.74247C7.44619 6.74164 7.39505 6.75933 7.35556 6.8007C6.88617 7.29218 7.06743 7.9698 7.31221 8.37504C7.57466 8.86553 7.5379 9.1735 7.35556 9.40959C7.14279 9.6851 7.48831 9.89802 7.64628 9.73262C8.11566 9.24114 7.93441 8.56352 7.68963 8.15827C7.42718 7.66779 7.46394 7.35984 7.64628 7.12375C7.80585 6.91712 7.65121 6.74544 7.49751 6.74247ZM9.23848 6.74247C9.18715 6.74164 9.13601 6.75933 9.09651 6.8007C8.62714 7.29218 8.80839 7.9698 9.05317 8.37504C9.31562 8.86553 9.27886 9.1735 9.09651 9.40959C8.88375 9.6851 9.22927 9.89802 9.38724 9.73262C9.85662 9.24114 9.67536 8.56352 9.43059 8.15827C9.16814 7.66778 9.20489 7.35984 9.38724 7.12375C9.54681 6.91712 9.39218 6.74544 9.23848 6.74247ZM10.9794 6.74247C10.9281 6.74164 10.877 6.75933 10.8375 6.8007C10.3681 7.29218 10.5493 7.9698 10.7941 8.37504C11.0566 8.86553 11.0198 9.1735 10.8375 9.40959C10.6247 9.6851 10.9702 9.89802 11.1282 9.73262C11.5976 9.24114 11.4163 8.56352 11.1715 8.15827C10.9091 7.66778 10.9459 7.35984 11.1282 7.12375C11.2878 6.91712 11.1331 6.74544 10.9794 6.74247Z" fill="#8B939F"/>
</svg>
